# xmcd
#
# Track frame offsets:
#	150
#	14762
#	27432
#	42797
#	56820
#	71514
#	83744
#	97477
#	111107
#	126018
#	138636
#	153722
#	167295
#	180737
#	200026
#	213572
#	226964
#	239774
#	251894
#	266467
#	278420
#
# Disc length: 4619 seconds
#
# Revision: 1
# Processed by: cddbd v1.5.2PL0 Copyright (c) Steve Scherf et al.
# Submitted via: EasyCDDAExtractor 6.0.0.1
#
DISCID=3d120915
DTITLE=Jackson 5 - Joyful Jukebox Music/Boogie
DYEAR=2004
DGENRE=R&B
TTITLE0=Joyful Jukebox Music
TTITLE1=Window Shopping
TTITLE2=You're My Best Friend, My Love
TTITLE3=Love is the Thing You Need
TTITLE4=The Eternal Light
TTITLE5=Pride and Joy
TTITLE6=Through Thick and Thin
TTITLE7=We're Here to Entertain You
TTITLE8=Make Tonight All Mine
TTITLE9=We're Gonna Change Our Style
TTITLE10=Love's Gone Bad
TTITLE11=I Ain't Gonna Eat Out My Heart Anymore
TTITLE12=ABC
TTITLE13=I Was Made to Love Her
TTITLE14=One Day I'll Marry You
TTITLE15=Never Can Say Goodbye
TTITLE16=Oh, I've Been Bless'd
TTITLE17=Penny Arcade
TTITLE18=Just Because I Love You
TTITLE19=Dancing Machine
TTITLE20=Hum Along and Dance (Uncut)
EXTD=
EXTT0=
EXTT1=
EXTT2=
EXTT3=
EXTT4=
EXTT5=
EXTT6=
EXTT7=
EXTT8=
EXTT9=
EXTT10=
EXTT11=
EXTT12=
EXTT13=
EXTT14=
EXTT15=
EXTT16=
EXTT17=
EXTT18=
EXTT19=
EXTT20=
PLAYORDER=
